<svg width="34" height="34" viewBox="0 0 34 34" fill="none" xmlns="http://www.w3.org/2000/svg">
<path d="M28.4122 21.5985L25.9199 19.0923V12.917C25.9531 10.6238 25.1554 8.39606 23.6742 6.64511C22.1931 4.89417 20.1284 3.73825 17.8615 3.3908C16.5458 3.21754 15.2083 3.32685 13.9383 3.71144C12.6682 4.09604 11.4948 4.74706 10.4963 5.62109C9.49779 6.49511 8.69716 7.57203 8.14783 8.77999C7.5985 9.98796 7.3131 11.2992 7.31068 12.6262V19.0923L4.81837 21.5985C4.50532 21.9168 4.29303 22.3203 4.20804 22.7585C4.12304 23.1968 4.16912 23.6504 4.34051 24.0626C4.5119 24.4748 4.801 24.8274 5.17166 25.0762C5.54232 25.325 5.9781 25.4591 6.42453 25.4616H11.0768V25.9323C11.1415 27.338 11.7608 28.6607 12.7989 29.6106C13.8371 30.5605 15.2094 31.0602 16.6153 31C18.0212 31.0602 19.3935 30.5605 20.4317 29.6106C21.4698 28.6607 22.0891 27.338 22.1538 25.9323V25.4616H26.8061C27.2525 25.4591 27.6883 25.325 28.0589 25.0762C28.4296 24.8274 28.7187 24.4748 28.8901 24.0626C29.0615 23.6504 29.1075 23.1968 29.0226 22.7585C28.9376 22.3203 28.7253 21.9168 28.4122 21.5985ZM19.3845 25.9323C19.3077 26.5983 18.977 27.209 18.4611 27.6372C17.9452 28.0654 17.284 28.278 16.6153 28.2308C15.9466 28.278 15.2854 28.0654 14.7695 27.6372C14.2536 27.209 13.9229 26.5983 13.8461 25.9323V25.4616H19.3845V25.9323ZM7.62914 22.6923L9.26299 21.0585C9.52215 20.8009 9.72775 20.4945 9.86796 20.1571C10.0082 19.8196 10.0802 19.4578 10.0799 19.0923V12.6262C10.0807 11.6921 10.2812 10.769 10.6681 9.91886C11.055 9.06869 11.6192 8.3111 12.323 7.69696C13.0173 7.0679 13.8399 6.59722 14.7341 6.31751C15.6282 6.03779 16.5725 5.95571 17.5015 6.07696C19.1027 6.33695 20.5562 7.16666 21.5942 8.41333C22.6323 9.65999 23.185 11.2397 23.1507 12.8616V19.0923C23.1486 19.4568 23.2184 19.8181 23.3562 20.1555C23.494 20.4929 23.6971 20.7997 23.9538 21.0585L25.6014 22.6923H7.62914Z" fill="white"/>
</svg>
