<svg width="48" height="48" viewBox="0 0 48 48" fill="none" xmlns="http://www.w3.org/2000/svg">
<g clip-path="url(#clip0_1_276)">
<path d="M27.6762 42.864C38.3633 40.565 45.1631 30.0377 42.864 19.3506C40.565 8.66357 30.0377 1.86376 19.3506 4.16281C8.66356 6.46187 1.86375 16.9892 4.16281 27.6762C6.46186 38.3633 16.9892 45.1631 27.6762 42.864Z" fill="#F7931A"/>
<path d="M31.6928 19.2484C31.5272 16.6317 29.3026 15.6842 26.468 15.3425L26.5853 11.7235L24.3836 11.6531L24.2685 15.1766C23.6897 15.1569 23.0986 15.1499 22.5086 15.1427L22.6251 11.5961L20.4231 11.5244L20.3055 15.1421C19.8284 15.1359 19.359 15.1306 18.9026 15.1149L18.9027 15.1035L15.8647 15.0042L15.7886 17.3564C15.7886 17.3564 17.4168 17.3782 17.3888 17.407C18.2809 17.4365 18.5538 17.9637 18.6241 18.4142L18.491 22.5364C18.5522 22.5384 18.6319 22.544 18.7235 22.5585L18.4905 22.5516L18.303 28.3267C18.2541 28.6055 18.0747 29.0477 17.4506 29.0289C17.4789 29.0544 15.8501 28.9771 15.8501 28.9771L15.3271 31.5926L18.1942 31.6857C18.7271 31.7039 19.2516 31.7303 19.7657 31.75L19.6482 35.4094L21.8488 35.4802L21.9661 31.8612C22.57 31.892 23.1546 31.9156 23.7256 31.9345L23.6075 35.5384L25.8093 35.6088L25.9283 31.9566C29.6389 31.8645 32.2604 31.0158 32.6951 27.5488C33.0463 24.7577 31.7697 23.4645 29.6839 22.8921C30.9829 22.2836 31.8176 21.1639 31.6928 19.2484ZM28.3564 26.9738C28.2704 29.7091 23.5963 29.2455 22.1032 29.1985L22.2622 24.3495C23.7558 24.3989 28.4502 24.1217 28.3564 26.9738ZM27.5546 20.0994C27.4737 22.5881 23.5774 22.1697 22.335 22.1295L22.4775 17.7333C23.7199 17.7735 27.639 17.5036 27.5546 20.0994Z" fill="white"/>
</g>
<defs>
<clipPath id="clip0_1_276">
<rect width="39.5866" height="39.5866" fill="white" transform="translate(0 8.32562) rotate(-12.1407)"/>
</clipPath>
</defs>
</svg>
