<svg width="22" height="16" viewBox="0 0 22 16" fill="none" xmlns="http://www.w3.org/2000/svg">
<path d="M1 13V3C1 2.46957 1.21071 1.96086 1.58579 1.58579C1.96086 1.21071 2.46957 1 3 1H19C19.5304 1 20.0391 1.21071 20.4142 1.58579C20.7893 1.96086 21 2.46957 21 3V13C21 13.5304 20.7893 14.0391 20.4142 14.4142C20.0391 14.7893 19.5304 15 19 15H3C2.46957 15 1.96086 14.7893 1.58579 14.4142C1.21071 14.0391 1 13.5304 1 13Z" stroke="white" stroke-width="1.5" stroke-linecap="round" stroke-linejoin="round"/>
<path d="M17.5 8.01L17.51 7.999M4.5 8.01L4.51 7.999M11 11C10.2044 11 9.44129 10.6839 8.87868 10.1213C8.31607 9.55871 8 8.79565 8 8C8 7.20435 8.31607 6.44129 8.87868 5.87868C9.44129 5.31607 10.2044 5 11 5C11.7956 5 12.5587 5.31607 13.1213 5.87868C13.6839 6.44129 14 7.20435 14 8C14 8.79565 13.6839 9.55871 13.1213 10.1213C12.5587 10.6839 11.7956 11 11 11Z" stroke="white" stroke-width="1.5" stroke-linecap="round" stroke-linejoin="round"/>
</svg>
