<svg width="6" height="10" viewBox="0 0 6 10" fill="none" xmlns="http://www.w3.org/2000/svg">
<path fill-rule="evenodd" clip-rule="evenodd" d="M0.219317 9.26129C0.078867 9.12067 -2.28882e-05 8.93004 -2.28882e-05 8.73129C-2.28882e-05 8.53254 0.078867 8.34192 0.219317 8.20129L3.68932 4.73129L0.219317 1.26129C0.0868373 1.11912 0.0147138 0.931071 0.0181417 0.73677C0.0215697 0.542469 0.100283 0.357083 0.237696 0.21967C0.375109 0.0822568 0.560494 0.00354506 0.754795 0.000116847C0.949096 -0.00331137 1.13714 0.0688116 1.27932 0.201292L5.27932 4.20129C5.41977 4.34192 5.49866 4.53254 5.49866 4.73129C5.49866 4.93004 5.41977 5.12067 5.27932 5.26129L1.27932 9.26129C1.13869 9.40174 0.948068 9.48063 0.749317 9.48063C0.550567 9.48063 0.359943 9.40174 0.219317 9.26129Z" fill="#767A89"/>
</svg>
