<svg width="6" height="22" viewBox="0 0 6 22" fill="none" xmlns="http://www.w3.org/2000/svg">
<path d="M2.98828 20C3.30012 20 3.59918 19.8761 3.81968 19.6556C4.04019 19.4351 4.16406 19.1361 4.16406 18.8242C4.16406 18.5124 4.04019 18.2133 3.81968 17.9928C3.59918 17.7723 3.30012 17.6484 2.98828 17.6484C2.67644 17.6484 2.37738 17.7723 2.15688 17.9928C1.93638 18.2133 1.8125 18.5124 1.8125 18.8242C1.8125 19.1361 1.93638 19.4351 2.15688 19.6556C2.37738 19.8761 2.67644 20 2.98828 20ZM2.98828 11.7695C3.30012 11.7695 3.59918 11.6457 3.81968 11.4252C4.04019 11.2047 4.16406 10.9056 4.16406 10.5938C4.16406 10.2819 4.04019 9.98285 3.81968 9.76235C3.59918 9.54185 3.30012 9.41797 2.98828 9.41797C2.67644 9.41797 2.37738 9.54185 2.15688 9.76235C1.93638 9.98285 1.8125 10.2819 1.8125 10.5938C1.8125 10.9056 1.93638 11.2047 2.15688 11.4252C2.37738 11.6457 2.67644 11.7695 2.98828 11.7695ZM2.98828 3.53906C3.30012 3.53906 3.59918 3.41519 3.81968 3.19469C4.04019 2.97418 4.16406 2.67512 4.16406 2.36328C4.16406 2.05144 4.04019 1.75238 3.81968 1.53188C3.59918 1.31138 3.30012 1.1875 2.98828 1.1875C2.67644 1.1875 2.37738 1.31138 2.15688 1.53188C1.93638 1.75238 1.8125 2.05144 1.8125 2.36328C1.8125 2.67512 1.93638 2.97418 2.15688 3.19469C2.37738 3.41519 2.67644 3.53906 2.98828 3.53906Z" stroke="#767A89" stroke-width="2.35156" stroke-linecap="round" stroke-linejoin="round"/>
</svg>
