<svg width="54" height="54" viewBox="0 0 54 54" fill="none" xmlns="http://www.w3.org/2000/svg">
<path d="M26.5528 53.1057C41.2176 53.1057 53.1057 41.2176 53.1057 26.5528C53.1057 11.8881 41.2176 0 26.5528 0C11.8881 0 0 11.8881 0 26.5528C0 41.2176 11.8881 53.1057 26.5528 53.1057Z" fill="#6C62E2"/>
<path d="M37.4896 19.483L27.4307 13.9792C27.1619 13.8307 26.8599 13.7528 26.5528 13.7528C26.2457 13.7528 25.9437 13.8307 25.6749 13.9792L15.616 19.4853C15.3287 19.6425 15.0889 19.8739 14.9217 20.1554C14.7544 20.4369 14.6657 20.7582 14.665 21.0856V32.0178C14.6657 32.3453 14.7544 32.6665 14.9217 32.948C15.0889 33.2295 15.3287 33.4609 15.616 33.6181L25.6749 39.1242C25.9437 39.2727 26.2457 39.3506 26.5528 39.3506C26.8599 39.3506 27.1619 39.2727 27.4307 39.1242L37.4896 33.6181C37.7768 33.4609 38.0166 33.2295 38.1839 32.948C38.3512 32.6665 38.4399 32.3453 38.4406 32.0178V21.0868C38.4405 20.7587 38.3521 20.4368 38.1848 20.1546C38.0175 19.8725 37.7774 19.6405 37.4896 19.483ZM26.5528 15.5795L35.7361 20.609L26.5528 25.6384L17.3695 20.609L26.5528 15.5795ZM16.4939 22.2092L25.6383 27.2135V37.0199L16.4939 32.019V22.2092ZM27.4672 37.0199V27.2181L36.6117 22.2092V32.0144L27.4672 37.0199Z" fill="white"/>
</svg>
