<svg width="20" height="20" viewBox="0 0 20 20" fill="none" xmlns="http://www.w3.org/2000/svg">
<path fill-rule="evenodd" clip-rule="evenodd" d="M15.319 13.433C16.566 11.8253 17.1536 9.80302 16.9625 7.77745C16.7713 5.75187 15.8157 3.87521 14.2899 2.52924C12.7642 1.18327 10.783 0.469102 8.74941 0.53203C6.71581 0.594958 4.78257 1.43025 3.34298 2.86798C1.90213 4.30671 1.06411 6.2407 0.999677 8.27585C0.935245 10.311 1.64926 12.2941 2.99621 13.8211C4.34316 15.3481 6.22168 16.304 8.24895 16.4941C10.2762 16.6841 12.2997 16.094 13.907 14.844L13.95 14.889L18.192 19.132C18.2849 19.2249 18.3952 19.2986 18.5166 19.3489C18.638 19.3992 18.7681 19.425 18.8995 19.425C19.0309 19.425 19.161 19.3992 19.2824 19.3489C19.4038 19.2986 19.5141 19.2249 19.607 19.132C19.6999 19.0391 19.7736 18.9288 19.8239 18.8074C19.8742 18.686 19.9 18.5559 19.9 18.4245C19.9 18.2931 19.8742 18.163 19.8239 18.0416C19.7736 17.9202 19.6999 17.8099 19.607 17.717L15.364 13.475C15.3494 13.4606 15.3344 13.4466 15.319 13.433ZM13.243 4.28298C13.8076 4.83846 14.2566 5.50023 14.5642 6.23012C14.8717 6.96001 15.0318 7.74357 15.035 8.5356C15.0382 9.32764 14.8846 10.1125 14.583 10.8448C14.2814 11.5772 13.8377 12.2426 13.2777 12.8027C12.7176 13.3627 12.0522 13.8064 11.3198 14.108C10.5875 14.4096 9.80263 14.5632 9.0106 14.56C8.21856 14.5568 7.435 14.3967 6.70511 14.0892C5.97523 13.7816 5.31346 13.3326 4.75798 12.768C3.6479 11.6397 3.02863 10.1184 3.03508 8.5356C3.04152 6.95278 3.67316 5.43663 4.79239 4.31739C5.91162 3.19816 7.42778 2.56653 9.0106 2.56008C10.5934 2.55364 12.1147 3.1729 13.243 4.28298Z" fill="#767A89"/>
</svg>
