<svg width="21" height="20" viewBox="0 0 21 20" fill="none" xmlns="http://www.w3.org/2000/svg">
<path d="M19.6354 8.83865L15.5834 12.3749L16.7972 17.6397C16.8614 17.915 16.8431 18.203 16.7445 18.4679C16.6459 18.7328 16.4714 18.9627 16.2429 19.1289C16.0143 19.2952 15.7418 19.3904 15.4595 19.4026C15.1771 19.4148 14.8974 19.3435 14.6553 19.1976L10.0634 16.4125L5.48139 19.1976C5.23932 19.3435 4.95962 19.4148 4.67726 19.4026C4.3949 19.3904 4.1224 19.2952 3.89384 19.1289C3.66528 18.9627 3.4908 18.7328 3.3922 18.4679C3.29361 18.203 3.27528 17.915 3.33951 17.6397L4.5515 12.3803L0.498653 8.83865C0.284293 8.65377 0.129289 8.40972 0.053078 8.1371C-0.0231331 7.86448 -0.0171584 7.57543 0.0702526 7.30619C0.157664 7.03695 0.32262 6.79952 0.544436 6.62366C0.766251 6.44779 1.03505 6.34134 1.31713 6.31763L6.65924 5.85494L8.74451 0.881188C8.85341 0.620206 9.03709 0.397278 9.27242 0.240474C9.50776 0.0836698 9.78422 0 10.067 0C10.3498 0 10.6263 0.0836698 10.8616 0.240474C11.0969 0.397278 11.2806 0.620206 11.3895 0.881188L13.4811 5.85494L18.8214 6.31763C19.1035 6.34134 19.3723 6.44779 19.5941 6.62366C19.8159 6.79952 19.9809 7.03695 20.0683 7.30619C20.1557 7.57543 20.1616 7.86448 20.0854 8.1371C20.0092 8.40972 19.8542 8.65377 19.6399 8.83865H19.6354Z" fill="#767A89"/>
</svg>
